<svg width="1200" height="630" viewBox="0 0 1200 630" xmlns="http://www.w3.org/2000/svg">
  <rect width="1200" height="630" fill="#060404"/>
  <circle cx="1050" cy="280" r="320" fill="none" stroke="#D40000" stroke-opacity="0.06" stroke-width="1"/>
  <circle cx="1050" cy="280" r="230" fill="none" stroke="#D40000" stroke-opacity="0.08" stroke-width="1"/>
  <circle cx="1050" cy="280" r="140" fill="none" stroke="#D40000" stroke-opacity="0.12" stroke-width="1"/>
  <circle cx="1050" cy="280" r="60" fill="#D40000" fill-opacity="0.04"/>
  <circle cx="1050" cy="280" r="5" fill="#D40000" fill-opacity="0.5"/>
  <line x1="0" y1="1" x2="1200" y2="1" stroke="#EDE8E5" stroke-opacity="0.04" stroke-width="1"/>
  <line x1="0" y1="629" x2="1200" y2="629" stroke="#EDE8E5" stroke-opacity="0.04" stroke-width="1"/>
  <rect x="80" y="72" width="60" height="60" rx="6" fill="#D40000"/>
  <text x="110" y="113" font-family="Arial Black, Arial" font-weight="900" font-size="26" fill="white" text-anchor="middle">IU</text>
  <text x="160" y="112" font-family="Arial, sans-serif" font-size="13" font-weight="400" fill="#8A8080" letter-spacing="3">INFINITE UNION</text>
  <text x="80" y="290" font-family="Arial Black, Arial" font-weight="900" font-size="110" fill="#EDE8E5" letter-spacing="-4">INFINITE</text>
  <text x="80" y="400" font-family="Arial Black, Arial" font-weight="900" font-size="110" fill="#EDE8E5" letter-spacing="-4">UNION</text>
  <rect x="80" y="424" width="100" height="3" fill="#D40000"/>
  <text x="80" y="480" font-family="Arial, sans-serif" font-size="22" font-weight="400" fill="#8A8080" letter-spacing="2">ЦИФРОВІ ПРОДУКТИ, ЩО ГЕНЕРУЮТЬ ПРИБУТОК</text>
  <rect x="80" y="515" width="120" height="32" rx="3" fill="#D40000" fill-opacity="0.12" stroke="#D40000" stroke-opacity="0.35" stroke-width="1"/>
  <text x="140" y="536" font-family="Arial, sans-serif" font-size="12" fill="#D40000" text-anchor="middle" letter-spacing="1.5">САЙТИ</text>
  <rect x="216" y="515" width="168" height="32" rx="3" fill="#D40000" fill-opacity="0.12" stroke="#D40000" stroke-opacity="0.35" stroke-width="1"/>
  <text x="300" y="536" font-family="Arial, sans-serif" font-size="12" fill="#D40000" text-anchor="middle" letter-spacing="1.5">TELEGRAM БОТИ</text>
  <rect x="400" y="515" width="170" height="32" rx="3" fill="#D40000" fill-opacity="0.12" stroke="#D40000" stroke-opacity="0.35" stroke-width="1"/>
  <text x="485" y="536" font-family="Arial, sans-serif" font-size="12" fill="#D40000" text-anchor="middle" letter-spacing="1.5">ЕКОСИСТЕМИ</text>
  <rect x="586" y="515" width="80" height="32" rx="3" fill="#D40000" fill-opacity="0.12" stroke="#D40000" stroke-opacity="0.35" stroke-width="1"/>
  <text x="626" y="536" font-family="Arial, sans-serif" font-size="12" fill="#D40000" text-anchor="middle" letter-spacing="1.5">AI</text>
  <text x="1120" y="600" font-family="Arial, sans-serif" font-size="15" fill="#4A4242" text-anchor="end" letter-spacing="1">infiniteunion.com.ua</text>
</svg>
